<svg xmlns="http://www.w3.org/2000/svg" id="Layer_2" viewBox="0 0 131.08 45.45"><defs><style>.cls-1{fill:#5e5f61;}.cls-1,.cls-2{stroke-width:0px;}.cls-2{fill:#5ab64b;}</style></defs><g id="Layer_1-2"><path class="cls-1" d="M41.69,19.78c-1.06.87-2.57,1.3-4.53,1.3h-3.76v6.37h-3.68V9.73h7.71c1.78,0,3.2.46,4.26,1.37,1.06.91,1.59,2.33,1.59,4.24,0,2.09-.53,3.57-1.59,4.43M38.88,13.4c-.48-.39-1.16-.59-2.03-.59h-3.45v5.21h3.45c.87,0,1.55-.21,2.03-.64.49-.42.73-1.1.73-2.02,0-.92-.24-1.58-.73-1.97"></path><path class="cls-1" d="M30.75,42.6c.14.25.34.45.58.6.24.15.52.22.82.22s.58-.06.82-.19c.24-.13.45-.32.62-.58.02-.02.04-.04.06-.04.02,0,.04,0,.07.01l.39.19c.06.03.06.07.02.13-.17.25-.35.45-.55.61s-.42.27-.67.35c-.25.07-.52.11-.83.11-.46,0-.86-.1-1.21-.31s-.63-.5-.83-.88c-.2-.38-.31-.81-.31-1.3,0-.54.1-1,.31-1.38.21-.39.49-.68.84-.89s.75-.31,1.19-.31.84.1,1.17.3c.33.2.59.48.78.86.18.38.28.83.28,1.36,0,.04,0,.09-.01.13s-.05.06-.12.06h-3.54s-.04.01-.06.04c-.02.03-.02.06-.02.1,0,.3.07.58.22.83ZM33.36,41.13c.07,0,.11,0,.13-.02.02-.02.03-.05.03-.11,0-.26-.06-.51-.17-.74-.11-.23-.28-.42-.49-.56-.21-.14-.47-.21-.77-.21-.33,0-.61.08-.84.24s-.4.36-.52.61c-.12.25-.18.52-.18.8h2.81Z"></path><path class="cls-1" d="M35.38,43.8v-4.66c0-.08.03-.12.1-.12h.55c.07,0,.1.03.1.1v.54s0,.05.02.06c.01,0,.03,0,.06-.03.2-.16.39-.3.57-.41.18-.11.36-.2.54-.26.18-.06.38-.09.59-.09.48,0,.85.13,1.11.39.26.26.38.59.38,1.01v3.45c0,.1-.05.15-.14.15h-.52s-.07-.01-.09-.03c-.02-.02-.03-.05-.03-.09v-3.3c0-.3-.08-.54-.23-.71s-.4-.25-.73-.25c-.18,0-.35.03-.5.09-.16.06-.32.14-.48.25-.16.11-.34.25-.54.41v3.49c0,.09-.05.14-.14.14h-.51c-.09,0-.13-.04-.13-.12Z"></path><path class="cls-1" d="M44.06,39.6s-.07.02-.07.07v2.93c0,.29.05.48.15.58.1.1.25.15.44.15h.64s.06,0,.07.02c.02.02.03.04.03.08v.31c0,.06-.05.1-.12.12-.06.01-.15.02-.26.03-.11,0-.23.01-.33.01s-.2,0-.27,0c-.39,0-.67-.09-.85-.27-.18-.18-.27-.47-.27-.86v-3.09c0-.06-.03-.09-.09-.09h-.74c-.07,0-.1-.03-.1-.1v-.39c0-.06.03-.09.09-.09h.79s.06-.02.06-.07l.1-1.47c0-.08.04-.12.1-.12h.46c.07,0,.11.04.11.13v1.46s.02.07.07.07h1.17c.07,0,.1.03.1.08v.4c0,.07-.03.1-.1.1h-1.17Z"></path><path class="cls-1" d="M47.05,43.69c-.35-.21-.63-.51-.82-.89s-.29-.82-.29-1.31.1-.96.3-1.35c.2-.39.48-.69.83-.9.35-.22.76-.32,1.22-.32s.88.11,1.22.33c.35.22.62.52.81.91.19.39.29.83.29,1.33s-.1.93-.3,1.31-.47.68-.82.89c-.35.22-.76.32-1.23.32s-.87-.11-1.22-.32ZM49.11,43.19c.23-.16.4-.38.52-.68.12-.29.18-.64.18-1.05s-.06-.76-.18-1.05c-.12-.29-.3-.52-.53-.68-.23-.16-.5-.24-.82-.24s-.59.08-.82.24c-.23.16-.41.39-.54.68-.13.29-.19.64-.19,1.05s.06.75.19,1.04c.13.3.31.52.54.68s.51.24.83.24.6-.08.82-.24Z"></path><path class="cls-1" d="M55.15,43.89s-.03-.05-.03-.1v-.39s-.01-.08-.03-.08c-.02,0-.05,0-.09.05-.07.06-.17.14-.29.25-.13.1-.29.2-.48.28-.19.08-.42.12-.68.12-.39,0-.74-.09-1.04-.28-.31-.18-.55-.46-.74-.83-.18-.37-.27-.82-.27-1.36s.09-.98.27-1.37c.18-.39.44-.7.77-.92.33-.22.7-.33,1.12-.33.3,0,.55.05.76.15.2.1.38.21.54.34.06.04.09.06.12.05.02,0,.03-.05.03-.12v-2.17c0-.08.03-.12.1-.12h.56c.07,0,.1.04.1.12v6.59c0,.06,0,.09-.03.12-.02.02-.06.03-.12.03h-.47s-.08-.01-.1-.03ZM54.5,39.66c-.2-.1-.42-.16-.67-.16-.3,0-.56.08-.8.23-.24.15-.42.38-.55.68-.13.3-.2.67-.2,1.11s.07.82.2,1.1.32.5.55.63c.23.13.48.2.75.2.25,0,.48-.06.67-.18s.35-.26.46-.43c.11-.17.17-.34.17-.51v-2.23c-.19-.19-.39-.34-.58-.44Z"></path><path class="cls-1" d="M58.12,43.69c-.35-.21-.63-.51-.82-.89s-.29-.82-.29-1.31.1-.96.3-1.35c.2-.39.48-.69.83-.9.35-.22.76-.32,1.22-.32s.88.11,1.22.33c.35.22.62.52.81.91.19.39.29.83.29,1.33s-.1.93-.3,1.31-.47.68-.82.89c-.35.22-.76.32-1.23.32s-.87-.11-1.22-.32ZM60.19,43.19c.23-.16.4-.38.52-.68.12-.29.18-.64.18-1.05s-.06-.76-.18-1.05c-.12-.29-.3-.52-.53-.68-.23-.16-.5-.24-.82-.24s-.59.08-.82.24c-.23.16-.41.39-.54.68-.13.29-.19.64-.19,1.05s.06.75.19,1.04c.13.3.31.52.54.68s.51.24.83.24.6-.08.82-.24Z"></path><path class="cls-1" d="M65.6,43.76c0,.06-.01.1-.04.12-.02.02-.07.03-.13.03h-.48c-.09,0-.14-.04-.14-.13v-6.6c0-.09.05-.13.12-.13h.55c.07,0,.11.04.11.12v6.58Z"></path><path class="cls-1" d="M67.85,43.69c-.35-.21-.63-.51-.82-.89s-.29-.82-.29-1.31.1-.96.3-1.35c.2-.39.48-.69.83-.9.35-.22.76-.32,1.22-.32s.88.11,1.22.33c.35.22.62.52.81.91.19.39.29.83.29,1.33s-.1.93-.3,1.31-.47.68-.82.89c-.35.22-.76.32-1.23.32s-.87-.11-1.22-.32ZM69.92,43.19c.23-.16.4-.38.52-.68.12-.29.18-.64.18-1.05s-.06-.76-.18-1.05c-.12-.29-.3-.52-.53-.68-.23-.16-.5-.24-.82-.24s-.59.08-.82.24c-.23.16-.41.39-.54.68-.13.29-.19.64-.19,1.05s.06.75.19,1.04c.13.3.31.52.54.68s.51.24.83.24.6-.08.82-.24Z"></path><path class="cls-1" d="M78.52,39.02s.08.01.11.03c.02.02.03.06.03.12v6.15c0,.08-.04.12-.11.12h-.56c-.07,0-.1-.04-.1-.12v-1.7c0-.07,0-.12-.03-.13s-.06,0-.11.06c-.16.12-.36.23-.59.32-.23.09-.49.14-.78.14-.43,0-.8-.1-1.12-.31s-.56-.51-.73-.89c-.17-.38-.25-.84-.25-1.36s.08-.95.25-1.33.41-.67.73-.88.7-.31,1.14-.31c.31,0,.57.04.77.12s.36.17.48.27c.12.1.21.19.28.26.06.06.09.05.1-.03l.06-.39c.01-.06.03-.09.05-.12s.06-.03.12-.03h.27ZM77.88,40.67c0-.21-.06-.41-.17-.59-.11-.18-.27-.33-.46-.44s-.42-.17-.67-.17c-.28,0-.53.07-.76.21-.23.14-.41.36-.55.65-.14.29-.2.66-.2,1.1s.06.8.19,1.1c.13.3.31.53.54.68.23.15.49.23.79.23.25,0,.48-.05.71-.16s.42-.25.59-.43v-2.18Z"></path><path class="cls-1" d="M82.51,43.18c.24-.14.49-.34.73-.59v-3.44c0-.09.05-.14.15-.14h.51c.09,0,.13.04.13.13l-.02,4.65c0,.08-.03.12-.1.12h-.54c-.07,0-.1-.03-.1-.1v-.55s0-.05-.02-.06c-.01,0-.03,0-.06.03-.34.29-.64.49-.9.6-.26.11-.52.17-.78.17-.28,0-.54-.06-.76-.18-.22-.12-.4-.28-.53-.49s-.19-.46-.19-.74v-3.43c0-.1.05-.15.14-.15h.52c.08,0,.12.04.12.13v3.25c0,.3.08.55.25.73s.4.28.7.28c.26,0,.52-.07.76-.22Z"></path><path class="cls-1" d="M86.17,42.6c.14.25.34.45.58.6.24.15.52.22.82.22s.58-.06.82-.19c.24-.13.45-.32.62-.58.02-.02.04-.04.06-.04.02,0,.04,0,.07.01l.39.19c.06.03.06.07.02.13-.17.25-.35.45-.55.61s-.42.27-.67.35c-.25.07-.52.11-.83.11-.46,0-.86-.1-1.21-.31s-.63-.5-.83-.88c-.2-.38-.31-.81-.31-1.3,0-.54.1-1,.31-1.38.21-.39.49-.68.84-.89s.75-.31,1.19-.31.84.1,1.17.3c.33.2.59.48.78.86.18.38.28.83.28,1.36,0,.04,0,.09-.01.13s-.05.06-.12.06h-3.54s-.04.01-.06.04c-.02.03-.02.06-.02.1,0,.3.07.58.22.83ZM88.78,41.13c.07,0,.11,0,.13-.02.02-.02.03-.05.03-.11,0-.26-.06-.51-.17-.74-.11-.23-.28-.42-.49-.56-.21-.14-.47-.21-.77-.21-.33,0-.61.08-.84.24s-.4.36-.52.61c-.12.25-.18.52-.18.8h2.81Z"></path><path class="cls-1" d="M92.79,43.8v-6.62c0-.08.03-.12.1-.12h.55c.07,0,.1.04.1.11v2.47s0,.05.02.06c.01,0,.03,0,.06-.03.22-.17.41-.31.6-.42.18-.11.36-.19.54-.25s.37-.08.58-.08c.48,0,.85.13,1.1.38.25.26.38.6.38,1.02v3.44c0,.1-.05.15-.14.15h-.52s-.07-.01-.09-.03c-.02-.02-.03-.05-.03-.09v-3.3c0-.3-.08-.54-.23-.71s-.4-.25-.73-.25c-.18,0-.35.03-.5.09-.16.06-.32.14-.48.25-.16.11-.34.25-.53.41v3.49c0,.09-.05.14-.15.14h-.51c-.08,0-.12-.04-.12-.12Z"></path><path class="cls-1" d="M100.26,43.84c-.27.12-.57.18-.9.18-.48,0-.86-.12-1.13-.37-.27-.25-.41-.57-.41-.97,0-.33.09-.61.28-.85s.46-.43.82-.56c.36-.14.81-.22,1.34-.25l.72-.06s.07-.02.1-.04c.03-.02.05-.05.05-.1v-.25c0-.33-.1-.6-.31-.79-.21-.19-.49-.29-.84-.29-.27,0-.52.06-.74.18-.22.12-.41.31-.59.55-.02.03-.04.05-.06.06-.02,0-.04,0-.08,0l-.5-.17s-.03-.03-.04-.05c0-.02,0-.05.02-.1.18-.32.45-.57.78-.76.34-.18.75-.28,1.23-.28.41,0,.76.06,1.03.19.27.13.48.31.62.55s.21.52.21.85v3.27c0,.06,0,.09-.03.11-.02.02-.05.03-.09.03h-.47s-.07-.01-.09-.04c-.02-.03-.03-.06-.04-.11v-.43c-.03-.09-.07-.09-.15-.02-.23.22-.48.39-.74.51ZM100.99,41.42l-.61.06c-.28.01-.54.05-.76.11-.22.06-.41.13-.56.23s-.27.2-.35.33c-.08.13-.12.27-.12.44,0,.27.09.48.28.63.19.15.44.23.76.23.2,0,.39-.04.57-.11.18-.07.34-.16.48-.27.14-.12.25-.24.33-.36.08-.12.12-.24.12-.36v-.77c0-.1-.04-.15-.13-.15Z"></path><path class="cls-1" d="M106.13,39.08c.24.1.45.24.63.42s.32.37.44.58c.04.07.02.12-.05.14l-.51.12s-.08,0-.12-.06c-.12-.18-.25-.32-.37-.43-.12-.11-.25-.2-.38-.25-.14-.06-.28-.09-.44-.09-.31,0-.59.08-.83.24s-.42.38-.55.68c-.13.3-.19.65-.19,1.05s.07.77.2,1.06c.13.3.32.52.55.68.24.15.52.23.84.23.3,0,.55-.07.77-.22.22-.15.41-.36.59-.65.02-.03.04-.05.05-.05.02,0,.04,0,.07.01l.4.15s.06.06.04.12c-.09.16-.2.31-.32.46-.12.15-.27.28-.43.39-.16.11-.35.2-.55.26-.2.06-.43.1-.67.1-.46,0-.86-.11-1.21-.32-.35-.21-.62-.51-.82-.89s-.3-.82-.3-1.32.1-.95.3-1.33.47-.68.82-.9c.35-.22.75-.33,1.2-.33.32,0,.6.05.85.15Z"></path><path class="cls-1" d="M108.93,42.6c.14.25.34.45.58.6.24.15.52.22.82.22s.58-.06.82-.19c.24-.13.45-.32.62-.58.02-.02.04-.04.06-.04.02,0,.04,0,.07.01l.39.19c.06.03.06.07.02.13-.17.25-.35.45-.55.61s-.42.27-.67.35c-.25.07-.52.11-.83.11-.46,0-.86-.1-1.21-.31s-.63-.5-.83-.88c-.2-.38-.31-.81-.31-1.3,0-.54.1-1,.31-1.38.21-.39.49-.68.84-.89s.75-.31,1.19-.31.84.1,1.17.3c.33.2.59.48.78.86.18.38.28.83.28,1.36,0,.04,0,.09-.01.13s-.05.06-.12.06h-3.54s-.04.01-.06.04c-.02.03-.02.06-.02.1,0,.3.07.58.22.83ZM111.54,41.13c.07,0,.11,0,.13-.02.02-.02.03-.05.03-.11,0-.26-.06-.51-.17-.74-.11-.23-.28-.42-.49-.56-.21-.14-.47-.21-.77-.21-.33,0-.61.08-.84.24s-.4.36-.52.61c-.12.25-.18.52-.18.8h2.81Z"></path><path class="cls-1" d="M113.57,43.8v-4.66c0-.08.03-.12.1-.12h.55c.06,0,.09.03.09.1v.54s0,.05.02.06c.02,0,.04,0,.07-.03.2-.16.38-.3.55-.41.17-.11.34-.2.52-.26.18-.06.37-.09.57-.09.36,0,.65.08.87.25s.37.35.44.56c.01.02.03.03.06.03.02,0,.05-.02.07-.05.2-.17.38-.31.56-.43.18-.12.35-.21.54-.27s.37-.1.58-.1c.45,0,.8.13,1.04.38.25.26.37.6.37,1.03v3.43c0,.1-.05.15-.14.15h-.52s-.07-.01-.09-.03c-.02-.02-.03-.05-.03-.09v-3.3c0-.3-.07-.54-.22-.71s-.37-.25-.68-.25c-.18,0-.35.03-.51.1-.16.07-.31.15-.44.25-.13.1-.25.19-.36.28-.05.04-.08.08-.1.12-.02.04-.03.09-.03.15v3.33c0,.1-.05.15-.14.15h-.52s-.07-.01-.09-.03-.03-.05-.03-.09v-3.3c0-.3-.07-.54-.21-.71s-.37-.25-.68-.25c-.26,0-.5.06-.71.19-.22.12-.46.31-.74.56v3.49c0,.09-.05.14-.14.14h-.51c-.09,0-.13-.04-.13-.12Z"></path><path class="cls-1" d="M122.77,43.69c-.35-.21-.63-.51-.82-.89s-.29-.82-.29-1.31.1-.96.3-1.35c.2-.39.48-.69.83-.9.35-.22.76-.32,1.22-.32s.88.11,1.22.33c.35.22.62.52.81.91.19.39.29.83.29,1.33s-.1.93-.3,1.31-.47.68-.82.89c-.35.22-.76.32-1.23.32s-.87-.11-1.22-.32ZM124.84,43.19c.23-.16.4-.38.52-.68.12-.29.18-.64.18-1.05s-.06-.76-.18-1.05c-.12-.29-.3-.52-.53-.68-.23-.16-.5-.24-.82-.24s-.59.08-.82.24c-.23.16-.41.39-.54.68-.13.29-.19.64-.19,1.05s.06.75.19,1.04c.13.3.31.52.54.68s.51.24.83.24.6-.08.82-.24Z"></path><path class="cls-1" d="M129.91,39.65c-.22-.12-.49-.18-.79-.18-.33,0-.61.07-.83.21-.22.14-.33.33-.33.57,0,.13.05.25.15.36.1.11.3.22.6.32l1.17.35c.43.12.73.29.92.51.19.22.28.48.28.77s-.09.54-.26.76c-.17.22-.41.38-.71.5s-.64.18-1.03.18c-.49,0-.91-.1-1.28-.29s-.62-.44-.78-.73c-.02-.03-.03-.06-.03-.08s.02-.05.05-.06l.36-.2s.06-.03.08-.02.04.01.06.03c.1.16.23.3.37.42.14.12.31.21.5.28.19.07.42.1.68.1.23,0,.45-.04.64-.1.19-.06.34-.15.45-.27.11-.12.17-.26.17-.42s-.07-.31-.2-.43c-.14-.12-.37-.23-.7-.32l-.95-.27c-.46-.12-.79-.29-.98-.5-.19-.21-.29-.46-.29-.74,0-.3.08-.55.24-.77.16-.22.38-.39.67-.51.29-.12.61-.18.98-.18.41,0,.78.08,1.11.24.32.16.57.37.74.62.02.02.03.05.03.07s-.01.04-.04.06l-.39.21s-.05.02-.07.01-.04-.02-.07-.04c-.12-.19-.3-.34-.52-.45Z"></path><path class="cls-1" d="M52.5,14.05s.15,0,.3.01v3.51c-.22-.02-.41-.04-.58-.05-.17,0-.3-.01-.41-.01-1.38,0-2.3.45-2.78,1.35-.26.51-.4,1.28-.4,2.33v6.26h-3.45v-13.1h3.27v2.28c.53-.87.99-1.47,1.38-1.79.64-.54,1.47-.81,2.5-.81.06,0,.12,0,.16.01"></path><path class="cls-1" d="M65.17,25.86c-1.11,1.36-2.78,2.04-5.04,2.04-2.25,0-3.93-.68-5.04-2.04-1.11-1.37-1.66-3.02-1.66-4.94s.55-3.53,1.66-4.91c1.1-1.39,2.78-2.08,5.04-2.08s3.93.69,5.04,2.08c1.11,1.39,1.66,3.02,1.66,4.91s-.55,3.57-1.66,4.94M62.43,23.96c.54-.71.81-1.73.81-3.04s-.27-2.32-.81-3.03c-.54-.71-1.31-1.07-2.31-1.07s-1.77.36-2.32,1.07c-.54.71-.8,1.71-.8,3.03s.27,2.33.8,3.04c.55.71,1.32,1.07,2.32,1.07s1.77-.36,2.31-1.07"></path><path class="cls-1" d="M75.22,14.34c.83.35,1.51.98,2.02,1.9v-1.89h3.33v12.43c0,1.69-.28,2.96-.85,3.82-.98,1.47-2.85,2.21-5.62,2.21-1.68,0-3.04-.33-4.1-.98-1.06-.66-1.64-1.64-1.75-2.94h3.73c.1.4.25.69.47.87.37.31.99.47,1.86.47,1.23,0,2.06-.41,2.48-1.24.27-.53.41-1.42.41-2.67v-.84c-.33.56-.68.98-1.06,1.26-.68.52-1.57.78-2.66.78-1.68,0-3.03-.59-4.04-1.77-1-1.19-1.5-2.79-1.5-4.81s.48-3.58,1.45-4.9c.97-1.33,2.34-1.99,4.12-2,.66,0,1.23.1,1.72.3M76.38,23.73c.55-.61.83-1.57.83-2.9,0-1.24-.26-2.19-.79-2.84-.52-.65-1.22-.97-2.1-.97-1.2,0-2.03.56-2.49,1.69-.24.6-.36,1.34-.36,2.22,0,.76.13,1.44.38,2.03.46,1.11,1.3,1.66,2.5,1.66.8,0,1.48-.3,2.03-.9"></path><path class="cls-1" d="M90.48,14.05s.15,0,.3.01v3.51c-.22-.02-.41-.04-.58-.05-.17,0-.3-.01-.41-.01-1.38,0-2.3.45-2.78,1.35-.26.51-.4,1.28-.4,2.33v6.26h-3.45v-13.1h3.27v2.28c.53-.87.99-1.47,1.38-1.79.64-.54,1.47-.81,2.5-.81.06,0,.12,0,.16.01"></path><path class="cls-1" d="M100.34,14.61c.87.41,1.59,1.05,2.16,1.93.51.78.85,1.68,1,2.7.09.6.12,1.47.11,2.6h-8.97c.05,1.31.46,2.24,1.24,2.76.47.33,1.04.49,1.71.49.7,0,1.28-.2,1.72-.6.24-.22.45-.52.64-.9h3.5c-.09.78-.49,1.57-1.21,2.37-1.12,1.27-2.69,1.91-4.71,1.91-1.67,0-3.14-.54-4.41-1.61-1.27-1.07-1.91-2.82-1.91-5.24,0-2.27.57-4,1.72-5.21,1.15-1.21,2.65-1.81,4.48-1.81,1.09,0,2.07.2,2.94.61M95.55,17.57c-.43.5-.71,1.17-.82,2.02h5.32c-.06-.9-.33-1.59-.83-2.05-.49-.47-1.1-.71-1.83-.71-.79,0-1.41.25-1.85.75"></path><path class="cls-1" d="M108.03,23.26c.07.61.23,1.04.47,1.3.42.46,1.21.68,2.36.68.67,0,1.21-.1,1.6-.3.4-.2.6-.5.6-.9,0-.38-.16-.68-.48-.88-.32-.2-1.51-.54-3.57-1.03-1.48-.37-2.53-.83-3.14-1.38-.61-.54-.91-1.33-.91-2.35,0-1.21.47-2.25,1.42-3.11.95-.87,2.29-1.31,4.01-1.31s2.96.33,3.99.99c1.03.65,1.63,1.77,1.78,3.38h-3.43c-.05-.44-.17-.79-.37-1.05-.38-.46-1.02-.7-1.92-.7-.74,0-1.28.12-1.6.35-.31.23-.47.51-.47.82,0,.39.17.68.5.85.34.18,1.53.5,3.57.95,1.36.32,2.38.81,3.06,1.45.67.66,1.01,1.48,1.01,2.46,0,1.3-.49,2.36-1.45,3.18-.96.82-2.45,1.23-4.47,1.23s-3.58-.43-4.57-1.3c-.98-.87-1.47-1.98-1.47-3.33h3.47Z"></path><path class="cls-1" d="M129.42,25.86c-1.11,1.36-2.78,2.04-5.04,2.04-2.25,0-3.93-.68-5.04-2.04-1.11-1.37-1.66-3.02-1.66-4.94s.55-3.53,1.66-4.91c1.11-1.39,2.78-2.08,5.04-2.08s3.93.69,5.04,2.08c1.1,1.39,1.66,3.02,1.66,4.91s-.55,3.57-1.66,4.94M126.68,23.96c.54-.71.8-1.73.8-3.04s-.27-2.32-.8-3.03c-.54-.71-1.31-1.07-2.31-1.07s-1.77.36-2.32,1.07c-.54.71-.81,1.71-.81,3.03s.27,2.33.81,3.04c.55.71,1.32,1.07,2.32,1.07s1.77-.36,2.31-1.07"></path><path class="cls-2" d="M0,.17h23.2C21.46,12.12,11.98,21.56,0,23.22V.17ZM27.26,8.36v19.06H6.66c9.89-2.06,17.81-9.47,20.6-19.06"></path><path class="cls-1" d="M25.78,0c.01.29.02.59.02.88,0,13.79-11.18,24.98-24.98,24.98-.27,0-.54,0-.82-.01v-.62c13.55-.91,24.38-11.7,25.38-25.22h.4Z"></path></g></svg>