<?xml version="1.0" encoding="UTF-8"?><svg id="Layer_2" xmlns="http://www.w3.org/2000/svg" viewBox="0 0 214.34 81.18"><defs><style>.cls-1{fill:#5e5f61;}.cls-2{fill:#5ab64b;}</style></defs><g id="Layer_1-2"><path class="cls-1" d="M68.18,32.34c-1.73,1.41-4.2,2.12-7.41,2.12h-6.15v10.41h-6.01V15.92h12.61c2.91,0,5.23.75,6.96,2.24,1.73,1.49,2.59,3.81,2.59,6.94,0,3.42-.87,5.84-2.59,7.25M63.58,21.91c-.79-.64-1.89-.96-3.32-.96h-5.64v8.53h5.64c1.43,0,2.54-.35,3.32-1.04.8-.69,1.2-1.79,1.2-3.3,0-1.51-.4-2.58-1.2-3.22"/><path class="cls-1" d="M85.84,22.97c.08,0,.24,0,.49.02v5.74c-.35-.04-.67-.06-.94-.08-.28-.01-.5-.02-.67-.02-2.25,0-3.77.73-4.54,2.2-.43.83-.65,2.1-.65,3.81v10.24h-5.64v-21.42h5.34v3.74c.86-1.43,1.62-2.4,2.26-2.93,1.05-.88,2.41-1.32,4.09-1.32.1,0,.19,0,.26.02"/><path class="cls-1" d="M106.57,42.28c-1.81,2.23-4.55,3.34-8.23,3.34-3.68,0-6.43-1.11-8.23-3.34-1.81-2.24-2.71-4.93-2.71-8.08s.9-5.77,2.71-8.04c1.81-2.27,4.55-3.4,8.23-3.4s6.42,1.13,8.23,3.4c1.81,2.27,2.71,4.94,2.71,8.04s-.9,5.83-2.71,8.08M102.09,39.18c.88-1.16,1.32-2.82,1.32-4.97s-.44-3.8-1.32-4.95c-.88-1.16-2.14-1.75-3.77-1.75s-2.9.58-3.79,1.75c-.88,1.15-1.32,2.8-1.32,4.95s.44,3.81,1.32,4.97c.89,1.17,2.16,1.75,3.79,1.75s2.89-.58,3.77-1.75"/><path class="cls-1" d="M122.99,23.44c1.36.56,2.46,1.6,3.3,3.11v-3.09h5.44v20.32c0,2.76-.47,4.85-1.4,6.25-1.6,2.41-4.66,3.61-9.2,3.62-2.74,0-4.97-.54-6.7-1.61-1.73-1.07-2.69-2.68-2.87-4.81h6.09c.16.65.41,1.13.77,1.41.6.51,1.62.77,3.05.77,2.02,0,3.37-.67,4.05-2.02.45-.86.67-2.32.67-4.36v-1.38c-.54.92-1.11,1.61-1.73,2.06-1.11.85-2.56,1.28-4.34,1.28-2.75,0-4.95-.96-6.6-2.89-1.64-1.94-2.46-4.56-2.46-7.86s.79-5.86,2.38-8.02c1.58-2.17,3.83-3.26,6.74-3.26,1.08,0,2.01.16,2.81.49M124.9,38.81c.9-1,1.36-2.57,1.36-4.74,0-2.03-.43-3.58-1.3-4.64-.85-1.06-2-1.59-3.44-1.59-1.96,0-3.32.92-4.07,2.77-.39.98-.59,2.19-.59,3.63,0,1.25.21,2.35.63,3.32.76,1.81,2.12,2.71,4.09,2.71,1.31,0,2.42-.49,3.32-1.47"/><path class="cls-1" d="M147.95,22.97c.08,0,.24,0,.49.02v5.74c-.35-.04-.67-.06-.94-.08-.28-.01-.5-.02-.67-.02-2.25,0-3.77.73-4.54,2.2-.43.83-.65,2.1-.65,3.81v10.24h-5.64v-21.42h5.35v3.74c.86-1.43,1.62-2.4,2.26-2.93,1.05-.88,2.41-1.32,4.09-1.32.1,0,.19,0,.26.02"/><path class="cls-1" d="M164.08,23.89c1.43.67,2.61,1.72,3.54,3.16.84,1.27,1.38,2.75,1.63,4.42.14.98.2,2.4.18,4.24h-14.66c.08,2.15.75,3.66,2.02,4.52.77.54,1.7.81,2.79.81,1.15,0,2.09-.33,2.81-.98.39-.35.74-.84,1.04-1.47h5.72c-.14,1.27-.81,2.56-1.98,3.87-1.84,2.08-4.4,3.12-7.7,3.12-2.73,0-5.13-.88-7.21-2.63-2.08-1.75-3.12-4.61-3.12-8.57,0-3.71.94-6.55,2.81-8.53,1.89-1.98,4.33-2.97,7.33-2.97,1.78,0,3.39.33,4.81,1M156.23,28.73c-.71.81-1.15,1.91-1.34,3.3h8.71c-.09-1.48-.54-2.6-1.36-3.36-.8-.77-1.79-1.16-2.99-1.16-1.3,0-2.31.41-3.03,1.22"/><path class="cls-1" d="M176.65,38.04c.12,1,.37,1.7.77,2.12.69.75,1.98,1.12,3.85,1.12,1.1,0,1.97-.16,2.61-.49.65-.33.98-.82.98-1.47,0-.63-.26-1.11-.79-1.43-.52-.33-2.47-.89-5.84-1.69-2.42-.6-4.13-1.36-5.13-2.26-1-.89-1.49-2.17-1.49-3.85,0-1.98.77-3.67,2.32-5.09,1.56-1.43,3.75-2.14,6.56-2.14s4.85.54,6.53,1.61c1.69,1.06,2.66,2.9,2.91,5.52h-5.6c-.08-.72-.28-1.29-.61-1.71-.62-.76-1.66-1.14-3.15-1.14-1.22,0-2.09.19-2.61.57-.51.38-.77.83-.77,1.34,0,.64.28,1.11.83,1.4.55.3,2.5.82,5.84,1.55,2.23.52,3.9,1.32,5.01,2.38,1.1,1.07,1.65,2.42,1.65,4.03,0,2.12-.79,3.86-2.38,5.21-1.57,1.34-4.01,2-7.31,2s-5.86-.71-7.47-2.12c-1.6-1.43-2.4-3.24-2.4-5.44h5.68Z"/><path class="cls-1" d="M211.62,42.28c-1.81,2.23-4.55,3.34-8.23,3.34-3.68,0-6.43-1.11-8.23-3.34-1.81-2.24-2.71-4.93-2.71-8.08s.9-5.77,2.71-8.04c1.81-2.27,4.55-3.4,8.23-3.4s6.43,1.13,8.23,3.4c1.81,2.27,2.71,4.94,2.71,8.04s-.9,5.83-2.71,8.08M207.14,39.18c.88-1.16,1.32-2.82,1.32-4.97s-.44-3.8-1.32-4.95c-.88-1.16-2.14-1.75-3.77-1.75s-2.9.58-3.79,1.75c-.88,1.15-1.32,2.8-1.32,4.95s.44,3.81,1.32,4.97c.89,1.17,2.16,1.75,3.79,1.75s2.89-.58,3.77-1.75"/><path class="cls-2" d="M0,.28h37.94C35.1,19.82,19.58,35.25,0,37.97V.28ZM44.57,13.67v31.17H10.88c16.16-3.37,29.12-15.48,33.68-31.17"/><path class="cls-1" d="M42.15,0c.02.48.03.96.03,1.44,0,22.56-18.29,40.84-40.84,40.84-.45,0-.89,0-1.33-.02v-1.02C22.15,39.75,39.87,22.11,41.5,0h.65Z"/><path class="cls-1" d="M50.3,65.89c0,.24-.11.35-.34.35h-1.08c-.11,0-.19-.03-.22-.08-.04-.06-.06-.13-.06-.23v-1.57c0-.2.09-.3.26-.3h1.18c.17,0,.26.09.26.28v1.55ZM50.23,77.6c0,.12-.02.21-.07.25-.04.04-.13.07-.27.07h-.95c-.11,0-.19-.02-.22-.06s-.06-.11-.06-.21v-9.37c0-.17.07-.26.22-.26h1.14c.14,0,.21.08.21.24v9.33Z"/><path class="cls-1" d="M53.12,77.67v-9.41c0-.16.07-.24.21-.24h1.12c.14,0,.21.07.21.21v1.08c0,.06.01.1.04.11.02.01.07,0,.13-.06.41-.32.79-.6,1.15-.83.35-.23.72-.4,1.09-.52s.77-.18,1.19-.18c.97,0,1.71.26,2.23.78.52.52.77,1.2.77,2.03v6.96c0,.2-.09.3-.28.3h-1.05c-.09,0-.15-.02-.19-.07-.04-.04-.06-.1-.06-.18v-6.67c0-.61-.16-1.09-.47-1.43-.31-.34-.8-.51-1.48-.51-.36,0-.7.06-1.02.18-.32.12-.64.29-.96.5-.32.22-.68.49-1.08.83v7.06c0,.19-.09.28-.28.28h-1.03c-.17,0-.26-.08-.26-.24Z"/><path class="cls-1" d="M69.5,75.26c.29.5.68.91,1.18,1.2.49.3,1.04.45,1.65.45s1.18-.13,1.66-.38c.49-.26.9-.64,1.25-1.17.05-.05.09-.08.12-.08.03,0,.08,0,.14.03l.78.39c.11.06.12.15.04.26-.34.5-.71.91-1.11,1.22-.4.32-.86.55-1.35.7-.5.15-1.06.22-1.68.22-.92,0-1.74-.21-2.45-.63-.71-.42-1.27-1.01-1.68-1.77-.41-.76-.62-1.64-.62-2.63,0-1.08.21-2.01.63-2.79s.98-1.38,1.7-1.8c.72-.42,1.52-.63,2.4-.63s1.7.2,2.37.6c.67.4,1.19.98,1.57,1.74.37.76.56,1.67.56,2.74,0,.09,0,.17-.03.26s-.1.13-.25.13h-7.15s-.09.03-.12.08-.05.12-.05.2c0,.61.15,1.17.44,1.67ZM74.78,72.28c.14,0,.22-.02.26-.05.04-.03.06-.1.06-.21,0-.53-.12-1.04-.35-1.5-.23-.47-.56-.84-.99-1.13-.43-.29-.95-.43-1.56-.43-.67,0-1.24.16-1.7.48-.46.32-.81.73-1.05,1.24-.24.51-.35,1.05-.35,1.61h5.68Z"/><path class="cls-1" d="M86.8,68.11c.04.06.04.12,0,.2l-3.79,9.33c-.06.19-.21.28-.43.28h-.67c-.24,0-.39-.09-.47-.26l-3.77-9.35c-.02-.07-.02-.14.02-.2.04-.06.1-.08.19-.08h1.16c.07,0,.14.02.19.05.05.03.09.08.11.16l2.93,7.34c.09.24.19.23.3-.02l2.91-7.32c.02-.07.06-.13.1-.16.04-.03.1-.05.18-.05h.86c.09,0,.15.03.19.08Z"/><path class="cls-1" d="M89.78,75.26c.29.5.68.91,1.18,1.2.49.3,1.04.45,1.65.45s1.18-.13,1.66-.38c.49-.26.9-.64,1.25-1.17.05-.05.09-.08.12-.08.03,0,.08,0,.14.03l.78.39c.11.06.12.15.04.26-.34.5-.71.91-1.11,1.22-.4.32-.86.55-1.35.7-.5.15-1.06.22-1.68.22-.92,0-1.74-.21-2.45-.63-.71-.42-1.27-1.01-1.68-1.77-.41-.76-.62-1.64-.62-2.63,0-1.08.21-2.01.63-2.79s.98-1.38,1.7-1.8c.72-.42,1.52-.63,2.4-.63s1.7.2,2.37.6c.67.4,1.19.98,1.57,1.74.37.76.56,1.67.56,2.74,0,.09,0,.17-.03.26s-.1.13-.25.13h-7.15s-.09.03-.12.08-.05.12-.05.2c0,.61.15,1.17.44,1.67ZM95.05,72.28c.14,0,.22-.02.26-.05.04-.03.06-.1.06-.21,0-.53-.12-1.04-.35-1.5-.23-.47-.56-.84-.99-1.13-.43-.29-.95-.43-1.56-.43-.67,0-1.24.16-1.7.48-.46.32-.81.73-1.05,1.24-.24.51-.35,1.05-.35,1.61h5.68Z"/><path class="cls-1" d="M99.21,77.85s-.07-.1-.07-.18v-9.41c0-.16.07-.24.21-.24h1.08c.14,0,.21.07.21.21v1.21c0,.07.02.12.06.13.04.01.09-.01.15-.07.32-.39.64-.7.96-.94.32-.24.64-.42.96-.54.32-.12.65-.18.97-.18.44,0,.65.08.65.24v1.12c0,.12-.06.17-.17.15-.11-.01-.24-.02-.38-.04-.14-.01-.3-.02-.46-.02-.27,0-.57.06-.88.18-.31.12-.6.28-.87.49-.27.21-.49.45-.66.71-.17.26-.26.52-.26.78v6.18c0,.19-.09.28-.28.28h-1.03c-.09,0-.15-.02-.2-.07Z"/><path class="cls-1" d="M105.99,80.96c-.2-.03-.3-.09-.3-.21v-.73c0-.09.03-.15.1-.19.07-.04.21-.06.42-.06h1.18c.27,0,.52-.09.75-.27.22-.18.41-.41.56-.68.15-.27.25-.55.3-.83.05-.28.03-.53-.06-.74l-3.57-8.92c-.03-.09-.02-.16,0-.22.03-.06.1-.09.2-.09h1.16c.07,0,.14.02.19.05.05.03.09.08.11.16l2.78,7.24c.05.11.11.17.17.17s.12-.07.17-.22l2.74-7.19c.04-.07.07-.13.11-.16.04-.03.09-.05.15-.05h.88c.09,0,.15.03.19.08.04.06.04.12,0,.2l-4.11,10.49c-.17.45-.37.81-.58,1.1-.21.29-.45.51-.72.66-.27.16-.56.27-.89.34-.32.07-.69.1-1.1.1-.36,0-.64-.01-.84-.04Z"/><path class="cls-1" d="M118.8,69.2c-.1,0-.15.05-.15.15v5.92c0,.59.1.98.3,1.18.2.2.5.3.9.3h1.29c.06,0,.11.02.15.05.04.03.06.08.06.16l-.02.63c0,.12-.07.21-.22.24-.12.03-.3.04-.53.06-.23.01-.45.02-.67.03-.22,0-.4,0-.55,0-.78,0-1.36-.18-1.72-.55s-.54-.95-.54-1.75v-6.24c0-.12-.06-.19-.19-.19h-1.49c-.14,0-.21-.07-.21-.21v-.78c0-.12.06-.19.19-.19h1.59c.09,0,.13-.05.13-.15l.21-2.97c.01-.16.08-.24.21-.24h.93c.15,0,.22.09.22.26v2.95c0,.1.05.15.15.15h2.35c.14,0,.21.06.21.17v.8c0,.14-.07.21-.21.21h-2.37Z"/><path class="cls-1" d="M123.43,77.67v-13.37c0-.16.07-.24.21-.24h1.1c.14,0,.21.07.21.22v4.99c0,.06.01.1.04.11.02.01.07,0,.13-.06.44-.34.84-.62,1.2-.84.37-.22.73-.39,1.08-.49.35-.11.74-.16,1.17-.16.97,0,1.71.26,2.22.77.51.52.77,1.2.77,2.06v6.95c0,.2-.09.3-.28.3h-1.05c-.09,0-.15-.02-.19-.07-.04-.04-.06-.1-.06-.18v-6.67c0-.61-.16-1.09-.47-1.43-.31-.34-.8-.51-1.48-.51-.36,0-.7.06-1.02.18-.32.12-.64.29-.96.5-.32.22-.68.49-1.06.83v7.06c0,.19-.1.28-.3.28h-1.03c-.16,0-.24-.08-.24-.24Z"/><path class="cls-1" d="M135.96,65.89c0,.24-.11.35-.34.35h-1.08c-.11,0-.19-.03-.22-.08-.04-.06-.06-.13-.06-.23v-1.57c0-.2.09-.3.26-.3h1.18c.17,0,.26.09.26.28v1.55ZM135.88,77.6c0,.12-.02.21-.07.25-.04.04-.13.07-.27.07h-.95c-.11,0-.19-.02-.22-.06s-.06-.11-.06-.21v-9.37c0-.17.07-.26.22-.26h1.14c.14,0,.21.08.21.24v9.33Z"/><path class="cls-1" d="M138.78,77.67v-9.41c0-.16.07-.24.21-.24h1.12c.14,0,.21.07.21.21v1.08c0,.06.01.1.04.11.02.01.07,0,.13-.06.41-.32.79-.6,1.15-.83.35-.23.72-.4,1.09-.52s.77-.18,1.19-.18c.97,0,1.71.26,2.23.78.52.52.77,1.2.77,2.03v6.96c0,.2-.09.3-.28.3h-1.05c-.09,0-.15-.02-.19-.07-.04-.04-.06-.1-.06-.18v-6.67c0-.61-.16-1.09-.47-1.43-.31-.34-.8-.51-1.48-.51-.36,0-.7.06-1.02.18-.32.12-.64.29-.96.5-.32.22-.68.49-1.08.83v7.06c0,.19-.09.28-.28.28h-1.03c-.17,0-.26-.08-.26-.24Z"/><path class="cls-1" d="M158.9,67.93c.06.05.08.12.08.22v.65c0,.11-.03.2-.08.26s-.15.09-.29.07c-.2,0-.37.01-.52.04-.15.03-.3.07-.45.13-.3.11-.42.26-.37.43.06.14.13.3.21.49.07.19.11.45.11.77,0,.55-.14,1.05-.43,1.5-.29.45-.73.82-1.33,1.09s-1.37.41-2.29.41c-.63,0-1.13.04-1.49.11-.36.07-.62.17-.77.3-.15.12-.22.26-.22.39,0,.2.13.34.4.43s.7.15,1.3.19l2.41.13c1.09.06,1.9.32,2.41.78.51.46.77,1.06.77,1.81,0,.93-.41,1.67-1.24,2.21-.83.54-2.01.81-3.54.81s-2.78-.23-3.61-.68c-.83-.45-1.24-1.1-1.24-1.95,0-.44.15-.83.46-1.18.3-.35.74-.66,1.3-.93.14-.06.14-.13,0-.21-.27-.12-.49-.28-.63-.46-.15-.18-.22-.39-.22-.64,0-.17.06-.35.17-.52.11-.17.28-.34.49-.49.22-.15.48-.28.79-.39.07-.02.11-.06.11-.09s-.03-.08-.09-.13c-.55-.27-.95-.62-1.21-1.03-.26-.41-.39-.9-.39-1.48,0-.97.37-1.74,1.1-2.3s1.77-.84,3.12-.84c.65,0,1.2.07,1.65.22.45.15.84.35,1.15.62.07.06.14.09.21.09s.12-.03.19-.09c.15-.14.32-.27.5-.4.19-.13.39-.24.61-.33.22-.09.43-.13.64-.13.12,0,.21.03.27.07ZM151.88,76.7c-.22-.01-.47.05-.75.2-.27.14-.52.34-.73.59-.21.25-.32.54-.32.88,0,.39.13.72.4,1s.67.49,1.21.63c.54.14,1.21.21,2.01.21,1.03,0,1.82-.15,2.35-.46.53-.31.8-.77.8-1.41,0-.41-.14-.75-.42-1.01s-.76-.41-1.45-.45l-3.12-.19ZM155.47,72.49c.42-.35.63-.86.63-1.5s-.21-1.18-.63-1.56-1.07-.57-1.94-.57-1.48.19-1.93.57c-.45.38-.68.9-.68,1.56s.23,1.15.68,1.5c.45.35,1.1.53,1.93.53s1.52-.18,1.94-.53Z"/><path class="cls-1" d="M177.74,68.11c.04.06.04.12.02.2l-2.86,9.37c-.03.09-.07.15-.12.19-.06.04-.13.06-.23.06h-.9c-.21,0-.34-.08-.39-.24l-2.22-6.98c-.05-.11-.09-.17-.13-.17s-.07.06-.09.17l-2.11,6.98c-.02.09-.07.15-.12.19-.06.04-.13.06-.23.06h-.95c-.2,0-.33-.08-.39-.24l-2.95-9.37c-.01-.07,0-.14.04-.2.04-.06.1-.08.19-.08h1.1c.07,0,.14.02.19.05.05.03.09.08.11.16l2.22,7.26c.04.12.08.18.13.18.05,0,.1-.07.15-.2l2.2-7.26c.02-.06.06-.11.1-.14s.1-.05.16-.05h.88c.07,0,.14.02.19.05.05.03.08.08.09.16l2.3,7.26c.04.12.08.18.13.18.05,0,.09-.07.13-.2l2.15-7.24c.04-.07.08-.13.13-.16.05-.03.11-.05.19-.05h.75c.07,0,.13.03.17.08Z"/><path class="cls-1" d="M180.93,75.26c.29.5.68.91,1.18,1.2.49.3,1.04.45,1.65.45s1.18-.13,1.66-.38c.49-.26.9-.64,1.25-1.17.05-.05.09-.08.12-.08.03,0,.08,0,.14.03l.78.39c.11.06.12.15.04.26-.34.5-.71.91-1.11,1.22-.4.32-.86.55-1.35.7-.5.15-1.06.22-1.68.22-.92,0-1.74-.21-2.45-.63-.71-.42-1.27-1.01-1.68-1.77-.41-.76-.62-1.64-.62-2.63,0-1.08.21-2.01.63-2.79s.98-1.38,1.7-1.8c.72-.42,1.52-.63,2.4-.63s1.7.2,2.37.6c.67.4,1.19.98,1.57,1.74.37.76.56,1.67.56,2.74,0,.09,0,.17-.03.26s-.1.13-.25.13h-7.15s-.09.03-.12.08-.05.12-.05.2c0,.61.15,1.17.44,1.67ZM186.2,72.28c.14,0,.22-.02.26-.05.04-.03.06-.1.06-.21,0-.53-.12-1.04-.35-1.5-.23-.47-.56-.84-.99-1.13-.43-.29-.95-.43-1.56-.43-.67,0-1.24.16-1.7.48-.46.32-.81.73-1.05,1.24-.24.51-.35,1.05-.35,1.61h5.68Z"/><path class="cls-1" d="M201.13,77.85s-.07-.11-.07-.2v-.78c0-.1-.02-.16-.07-.17s-.1.02-.18.09c-.14.12-.33.29-.59.5-.26.21-.58.4-.96.56-.39.16-.85.24-1.38.24-.78,0-1.49-.19-2.11-.56-.62-.37-1.12-.93-1.48-1.67-.37-.74-.55-1.66-.55-2.75s.18-1.98.55-2.77c.37-.79.88-1.41,1.55-1.85.67-.44,1.42-.66,2.27-.66.61,0,1.12.1,1.53.3.41.2.77.43,1.08.69.11.09.19.12.23.1.04-.02.07-.1.07-.23v-4.39c0-.16.07-.24.21-.24h1.14c.14,0,.21.08.21.24v13.31c0,.11-.02.19-.06.23-.04.04-.12.07-.24.07h-.95c-.09,0-.15-.02-.2-.07ZM199.83,69.31c-.4-.21-.85-.32-1.34-.32-.6,0-1.14.15-1.61.46-.48.31-.85.76-1.12,1.37-.27.61-.4,1.36-.4,2.24s.14,1.65.41,2.23c.27.58.64,1,1.1,1.27s.96.4,1.51.4c.51,0,.96-.12,1.35-.35.39-.24.7-.53.93-.88.23-.35.35-.69.35-1.03v-4.5c-.39-.39-.78-.68-1.18-.9Z"/><path class="cls-1" d="M207.14,77.46c-.72-.43-1.27-1.03-1.66-1.79-.39-.77-.59-1.65-.59-2.64s.2-1.94.61-2.72c.4-.78.96-1.38,1.67-1.82.71-.44,1.53-.65,2.46-.65s1.77.22,2.47.66,1.25,1.05,1.64,1.83c.39.78.59,1.67.59,2.68s-.2,1.88-.6,2.64-.95,1.37-1.65,1.8c-.7.44-1.53.65-2.47.65s-1.76-.21-2.47-.64ZM211.31,76.45c.46-.32.81-.77,1.05-1.36.24-.59.36-1.3.36-2.12s-.12-1.53-.37-2.12c-.25-.59-.6-1.05-1.06-1.37-.46-.32-1.01-.49-1.66-.49s-1.19.16-1.66.49c-.47.32-.84.78-1.09,1.37-.26.59-.38,1.3-.38,2.12s.13,1.51.38,2.11c.25.6.62,1.05,1.09,1.37.47.32,1.03.48,1.68.48s1.2-.16,1.66-.48Z"/></g></svg>